# xmcd
#
# Track frame offsets: 
#        150
#        20670
#        40647
#        62207
#        79890
#        98277
#        119410
#        136577
#        160035
#        182335
#        203712
#        224247
#
# Disc length: 3261 seconds
#
# Revision: 4
# Processed by: cddbd v1.5.1PL2 Copyright (c) Steve Scherf et al.
# Submitted via: ExactAudioCopy v0.95b4
#
DISCID=9a0cbb0c
DTITLE=Brian Mcknight - Anytime
DYEAR=1997
DGENRE=R&B
TTITLE0=Anytime
TTITLE1=Could
TTITLE2=You Should Be Mine (Don't Waste Your Time)
TTITLE3=Show Me The Way Back To Your Heart
TTITLE4=Everythime We Say Goodbye
TTITLE5=You Got The Bomb
TTITLE6=Hold Me
TTITLE7=The Only One For Me
TTITLE8=Til I Get Over You
TTITLE9=I Belong To You
TTITLE10=Jam Knock
TTITLE11=When The Chariot Comes
EXTD=
EXTT0=
EXTT1=
EXTT2=
EXTT3=
EXTT4=
EXTT5=
EXTT6=
EXTT7=
EXTT8=
EXTT9=
EXTT10=
EXTT11=
PLAYORDER=
